<svg aria-hidden="true" style="position: absolute; width: 0; height: 0; overflow: hidden;" version="1.1" xmlns="http://www.w3.org/2000/svg" xmlns:xlink="http://www.w3.org/1999/xlink">
<defs>
<symbol id="icon-buy" viewBox="0 0 32 32">
<path d="M8.541 27.763c1.086 0.056 1.946 0.95 1.946 2.045s-0.86 1.99-1.941 2.045l-0.005 0c-1.095-0.046-1.965-0.944-1.965-2.046s0.87-2 1.961-2.046l0.004-0zM26.365 27.763c1.13 0 2.048 0.916 2.048 2.045 0 0.001 0 0.002 0 0.003 0 1.131-0.917 2.048-2.048 2.048s-2.048-0.917-2.048-2.048c0-1.131 0.917-2.048 2.048-2.048v0zM1.785 0.99l3.288 0.569c0.527 0.097 0.929 0.53 0.976 1.065l0 0.005 0.372 4.426 22.737 0.034c0.879 0.128 1.654 0.588 2.181 1.297 0.529 0.706 0.749 1.576 0.623 2.449l-1.499 10.361c-0.297 1.962-1.966 3.45-3.985 3.459h-17.256c-2.106-0.010-3.83-1.627-4.012-3.686l-0.001-0.015-1.447-17.214-2.381-0.411c-0.562-0.1-0.984-0.586-0.984-1.17 0-0.071 0.006-0.141 0.018-0.208l-0.001 0.007c0.107-0.562 0.595-0.982 1.181-0.982 0.067 0 0.132 0.005 0.196 0.016l-0.007-0.001zM7.486 9.427h-0.867l0.953 11.331c0.064 0.857 0.775 1.528 1.643 1.528 0.003 0 0.007 0 0.010-0h17.251c0.833-0.004 1.521-0.619 1.641-1.419l0.001-0.009 1.502-10.363c0.006-0.040 0.010-0.087 0.010-0.135 0-0.21-0.070-0.404-0.188-0.56l0.002 0.002c-0.144-0.195-0.36-0.33-0.608-0.365l-0.005-0.001h-0.081l-0.172 0.002h-0.118l-0.896 0.003-20.079-0.015zM23.939 12.896c0.655 0 1.186 0.531 1.186 1.186s-0.531 1.186-1.186 1.186h-4.379c-0.655 0-1.186-0.531-1.186-1.186s0.531-1.186 1.186-1.186v0h4.379z"></path>
</symbol>
<symbol id="icon-search" viewBox="0 0 32 32">
<path d="M14.84 1.103c7.938 0 14.393 6.456 14.393 14.392 0 0.003 0 0.007 0 0.011 0 3.751-1.44 7.167-3.798 9.722l0.009-0.010 4.628 4.616c0.201 0.201 0.326 0.478 0.326 0.785 0 0.612-0.496 1.109-1.109 1.109-0.306 0-0.583-0.124-0.783-0.324l-4.684-4.67c-2.431 1.965-5.56 3.155-8.967 3.155-0.005 0-0.010 0-0.015 0h0.001c-7.934 0-14.393-6.457-14.393-14.393s6.459-14.392 14.393-14.392zM14.84 3.32c-6.713 0-12.177 5.46-12.177 12.175s5.464 12.177 12.177 12.177 12.177-5.462 12.177-12.177c0-6.715-5.464-12.177-12.177-12.177z"></path>
</symbol>
</defs>
</svg>
